<svg width="34" height="34" viewBox="0 0 34 34" fill="none" xmlns="http://www.w3.org/2000/svg">
<mask id="mask0_58_8" style="mask-type:alpha" maskUnits="userSpaceOnUse" x="5" y="5" width="24" height="24">
<rect x="5" y="5" width="24" height="24" fill="#D9D9D9"/>
</mask>
<g mask="url(#mask0_58_8)">
<path d="M10.5 22.825C8.88188 22.825 7.50652 22.2587 6.3739 21.1261C5.2413 19.9934 4.675 18.6181 4.675 17C4.675 15.3818 5.24131 14.0065 6.37392 12.8739C7.50652 11.7412 8.88188 11.1749 10.5 11.1749C11.1543 11.1749 11.7837 11.2903 12.388 11.5211C12.9924 11.7519 13.5337 12.0815 14.012 12.5097L15.5282 13.8619L13.5478 15.65L12.238 14.4902C11.9996 14.2851 11.7302 14.123 11.4299 14.0038C11.1295 13.8846 10.8196 13.825 10.5 13.825C9.61812 13.825 8.86848 14.1337 8.2511 14.7511C7.63372 15.3684 7.32502 16.1181 7.32502 17C7.32502 17.8818 7.63372 18.6315 8.2511 19.2489C8.86848 19.8662 9.61812 20.1749 10.5 20.1749C10.8196 20.1749 11.1295 20.1153 11.4299 19.9961C11.7302 19.8769 11.9996 19.7148 12.238 19.5097L19.988 12.5097C20.4663 12.0815 21.0076 11.7519 21.6119 11.5211C22.2163 11.2903 22.8457 11.1749 23.5 11.1749C25.1181 11.1749 26.4935 11.7412 27.6261 12.8739C28.7587 14.0065 29.325 15.3818 29.325 17C29.325 18.6181 28.7587 19.9934 27.6261 21.1261C26.4935 22.2587 25.1181 22.825 23.5 22.825C22.8457 22.825 22.2163 22.7096 21.6119 22.4788C21.0076 22.248 20.4663 21.9184 19.988 21.4902L18.4717 20.138L20.4522 18.35L21.762 19.5097C22.0004 19.7148 22.2698 19.8769 22.5701 19.9961C22.8705 20.1153 23.1804 20.1749 23.5 20.1749C24.3819 20.1749 25.1315 19.8662 25.7489 19.2489C26.3663 18.6315 26.675 17.8818 26.675 17C26.675 16.1181 26.3663 15.3684 25.7489 14.7511C25.1315 14.1337 24.3819 13.825 23.5 13.825C23.1804 13.825 22.8705 13.8846 22.5701 14.0038C22.2698 14.123 22.0004 14.2851 21.762 14.4902L14.012 21.4902C13.5337 21.9184 12.9924 22.248 12.388 22.4788C11.7837 22.7096 11.1543 22.825 10.5 22.825Z" fill="white"/>
</g>
</svg>
